# xmcd
#
# Track frame offsets: 
#        150
#        15550
#        27648
#        42758
#        55520
#        67728
#        81740
#        95918
#        110803
#        126335
#        140380
#        156350
#        170185
#        181313
#        195748
#        211370
#        225658
#        240688
#
# Disc length: 3393 seconds
#
# Revision: 11
# Processed by: cddbd v1.5.2PL0 Copyright (c) Steve Scherf et al.
# Submitted via: ExactAudioCopyFreeDBPlugin 1.0
#
DISCID=070d3f12
DTITLE=Asleep At The Wheel - Tribute To The Music Of Bob Wills
DYEAR=1993
DGENRE=Country
TTITLE0=Red Wing (Chet Atkins and Vince Gill)
TTITLE1=Big Ball's In Cowtown (George Strait and Ray Benson)
TTITLE2=Yearning (Just For You) (Vince Gill)
TTITLE3=Bring It On Down To My House (Ray Benson)
TTITLE4=Deep Water (Garth Brooks)
TTITLE5=Blues For Dixie (Lyle Lovett)
TTITLE6=Billy Dale (Dolly Parton)
TTITLE7=Across The Alley From The Alamo (Johnny Rodriguez and Ray Benson
TTITLE7=)
TTITLE8=Old Fashioned Love (Suzy Bogguss and Ray Benson)
TTITLE9=Ida Red (Willie Nelson and Ray Benson)
TTITLE10=Misery (Marty Stuart)
TTITLE11=I Wonder If You Feel The Way I Do (Merle Haggard)
TTITLE12=Hubbin' it (Huey Lewis and Ray Benson)
TTITLE13=Corine, Corina (Brooks and Dunn)
TTITLE14=Still Water Runs The Deepest (Willie Nelson)
TTITLE15=All Night Long (Leon Rausch)
TTITLE16=Got A Letter From My Kid Today (Ray Benson)
TTITLE17=Dusty Skies (Riders)
EXTD=This is a correction of the transposition of track\\artist
EXTT0=
EXTT1=
EXTT2=
EXTT3=
EXTT4=
EXTT5=
EXTT6=
EXTT7=
EXTT8=
EXTT9=
EXTT10=
EXTT11=
EXTT12=
EXTT13=
EXTT14=
EXTT15=
EXTT16=
EXTT17=
PLAYORDER=
